<mxfile host="65bd71144e">
    <diagram id="pXEzVUeB5VhgA_4_Y6J9" name="Page-1">
        <mxGraphModel dx="592" dy="412" grid="0" gridSize="10" guides="1" tooltips="1" connect="1" arrows="1" fold="1" page="1" pageScale="1" pageWidth="850" pageHeight="1100" background="#ffffff" math="0" shadow="0">
            <root>
                <mxCell id="0"/>
                <mxCell id="1" parent="0"/>
                <mxCell id="20" value="sequenceDiagram&#10;CV-&gt;ORBC: Select 'Credit Card' as\npayment type&#10;ORBC--&gt;&gt;CV: Send redirect to PayBC&#10;CV-&gt;PayBC: Supply amount and invoice number to PayBC&#10;note over CV,PayBC: This is automatically sent by the browser, does not involve any user actoin&#10;PayBC--&gt;&gt;CV: Present payment details screen&#10;CV-&gt;PayBC: Supply payment details (CC number, etc)&#10;PayBC-&gt;PayBC: Process payment&#10;note over PayBC: Assume successful\npayment in this diagram&#10;PayBC--&gt;&gt;CV: Send redirect to ORBC, including transaction details&#10;CV-&gt;ORBC: Supply transaction details&#10;note over CV,ORBC: Does not involve user interaction, \nautomatically sent by the browser&#10;ORBC-&gt;ORBC: Validate transaction\ndetails&#10;note over ORBC: Not sure how this will be done,\nbut we need to ensure the message\nhas not been tampered with.&#10;ORBC-&gt;&gt;DB: Save transaction details for permit" style="shadow=0;dashed=0;align=left;strokeWidth=1;shape=mxgraph.mermaid.abstract.mermaid;labelBackgroundColor=#ffffff;noLabel=1;theme=default;" parent="1" vertex="1">
                    <mxGeometry x="100" y="60" width="580" height="410" as="geometry"/>
                </mxCell>
            </root>
        </mxGraphModel>
    </diagram>
</mxfile>